<svg width="446.06251220703126px" height="158.0400634765625px" xmlns="http://www.w3.org/2000/svg" viewBox="26.96874389648437 -4.020031738281247 446.06251220703126 158.0400634765625" style="background: none;" preserveAspectRatio="xMidYMid"><defs><linearGradient id="editing-outline-gradient" x1="-0.43358042649720174" x2="1.4335804264972016" y1="0.14163205045469973" y2="0.8583679495453003"><stop offset="0" stop-color="#000000"></stop><stop offset="1" stop-color="#000000"></stop></linearGradient><filter id="editing-outline" x="-100%" y="-100%" width="300%" height="300%"><feMorphology in="SourceGraphic" operator="dilate" radius="3" result="outline"></feMorphology><feComposite operator="out" in="outline" in2="SourceAlpha"></feComposite></filter></defs><g filter="url(#editing-outline)"><g transform="translate(92.52499580383301, 103.54000091552734)"><path d="M30.98-9.54L30.98-9.54L30.98-9.54Q30.14-8.83 28.83-8.42L28.83-8.42L28.83-8.42Q27.52-8 25.79-8L25.79-8L25.79-8Q23.49-8 21.98-8.58L21.98-8.58L21.98-8.58Q20.48-9.15 20.03-10.56L20.03-10.56L20.03-10.56Q18.24-16.19 17.09-19.68L17.09-19.68L17.09-19.68Q15.94-23.17 15.30-25.79L15.30-25.79L14.98-25.79L14.98-25.79Q14.78-22.02 14.69-18.91L14.69-18.91L14.69-18.91Q14.59-15.81 14.56-12.86L14.56-12.86L14.56-12.86Q14.53-9.92 14.43-6.91L14.43-6.91L14.43-6.91Q14.34-3.90 14.14-0.26L14.14-0.26L14.14-0.26Q13.31 0.06 11.97 0.29L11.97 0.29L11.97 0.29Q10.62 0.51 9.28 0.51L9.28 0.51L9.28 0.51Q6.46 0.51 4.90-0.38L4.90-0.38L4.90-0.38Q3.33-1.28 3.33-3.65L3.33-3.65L5.18-36.29L5.18-36.29Q5.70-37.12 7.42-38.08L7.42-38.08L7.42-38.08Q9.15-39.04 12.29-39.04L12.29-39.04L12.29-39.04Q15.68-39.04 17.60-37.98L17.60-37.98L17.60-37.98Q19.52-36.93 20.42-34.56L20.42-34.56L20.42-34.56Q20.99-33.02 21.66-31.04L21.66-31.04L21.66-31.04Q22.34-29.06 23.01-26.94L23.01-26.94L23.01-26.94Q23.68-24.83 24.32-22.75L24.32-22.75L24.32-22.75Q24.96-20.67 25.47-19.01L25.47-19.01L25.79-19.01L25.79-19.01Q27.33-24.38 28.86-29.41L28.86-29.41L28.86-29.41Q30.40-34.43 31.68-37.82L31.68-37.82L31.68-37.82Q32.64-38.34 34.14-38.69L34.14-38.69L34.14-38.69Q35.65-39.04 37.50-39.04L37.50-39.04L37.50-39.04Q40.64-39.04 42.62-38.11L42.62-38.11L42.62-38.11Q44.61-37.18 44.93-35.46L44.93-35.46L44.93-35.46Q45.18-34.18 45.47-31.52L45.47-31.52L45.47-31.52Q45.76-28.86 46.08-25.54L46.08-25.54L46.08-25.54Q46.40-22.21 46.72-18.50L46.72-18.50L46.72-18.50Q47.04-14.78 47.33-11.36L47.33-11.36L47.33-11.36Q47.62-7.94 47.81-5.09L47.81-5.09L47.81-5.09Q48-2.24 48.06-0.70L48.06-0.70L48.06-0.70Q46.98-0.06 45.79 0.22L45.79 0.22L45.79 0.22Q44.61 0.51 42.75 0.51L42.75 0.51L42.75 0.51Q40.32 0.51 38.66-0.32L38.66-0.32L38.66-0.32Q36.99-1.15 36.86-3.58L36.86-3.58L36.86-3.58Q36.48-10.56 36.38-16.13L36.38-16.13L36.38-16.13Q36.29-21.70 36.10-25.47L36.10-25.47L35.78-25.47L35.78-25.47Q35.14-22.98 33.92-19.20L33.92-19.20L33.92-19.20Q32.70-15.42 30.98-9.54ZM86.53-15.55L86.53-15.55L86.53-15.55Q86.53-11.58 85.31-8.48L85.31-8.48L85.31-8.48Q84.10-5.38 81.89-3.26L81.89-3.26L81.89-3.26Q79.68-1.15 76.61-0.06L76.61-0.06L76.61-0.06Q73.54 1.02 69.76 1.02L69.76 1.02L69.76 1.02Q65.98 1.02 62.91-0.13L62.91-0.13L62.91-0.13Q59.84-1.28 57.63-3.42L57.63-3.42L57.63-3.42Q55.42-5.57 54.21-8.64L54.21-8.64L54.21-8.64Q52.99-11.71 52.99-15.55L52.99-15.55L52.99-15.55Q52.99-19.33 54.21-22.40L54.21-22.40L54.21-22.40Q55.42-25.47 57.63-27.62L57.63-27.62L57.63-27.62Q59.84-29.76 62.91-30.91L62.91-30.91L62.91-30.91Q65.98-32.06 69.76-32.06L69.76-32.06L69.76-32.06Q73.54-32.06 76.61-30.88L76.61-30.88L76.61-30.88Q79.68-29.70 81.89-27.55L81.89-27.55L81.89-27.55Q84.10-25.41 85.31-22.34L85.31-22.34L85.31-22.34Q86.53-19.26 86.53-15.55ZM64.13-15.55L64.13-15.55L64.13-15.55Q64.13-11.65 65.63-9.57L65.63-9.57L65.63-9.57Q67.14-7.49 69.82-7.49L69.82-7.49L69.82-7.49Q72.51-7.49 73.95-9.60L73.95-9.60L73.95-9.60Q75.39-11.71 75.39-15.55L75.39-15.55L75.39-15.55Q75.39-19.39 73.92-21.47L73.92-21.47L73.92-21.47Q72.45-23.55 69.76-23.55L69.76-23.55L69.76-23.55Q67.07-23.55 65.60-21.47L65.60-21.47L65.60-21.47Q64.13-19.39 64.13-15.55ZM124.03-15.55L124.03-15.55L124.03-15.55Q124.03-11.58 122.82-8.48L122.82-8.48L122.82-8.48Q121.60-5.38 119.39-3.26L119.39-3.26L119.39-3.26Q117.18-1.15 114.11-0.06L114.11-0.06L114.11-0.06Q111.04 1.02 107.26 1.02L107.26 1.02L107.26 1.02Q103.49 1.02 100.42-0.13L100.42-0.13L100.42-0.13Q97.34-1.28 95.14-3.42L95.14-3.42L95.14-3.42Q92.93-5.57 91.71-8.64L91.71-8.64L91.71-8.64Q90.50-11.71 90.50-15.55L90.50-15.55L90.50-15.55Q90.50-19.33 91.71-22.40L91.71-22.40L91.71-22.40Q92.93-25.47 95.14-27.62L95.14-27.62L95.14-27.62Q97.34-29.76 100.42-30.91L100.42-30.91L100.42-30.91Q103.49-32.06 107.26-32.06L107.26-32.06L107.26-32.06Q111.04-32.06 114.11-30.88L114.11-30.88L114.11-30.88Q117.18-29.70 119.39-27.55L119.39-27.55L119.39-27.55Q121.60-25.41 122.82-22.34L122.82-22.34L122.82-22.34Q124.03-19.26 124.03-15.55ZM101.63-15.55L101.63-15.55L101.63-15.55Q101.63-11.65 103.14-9.57L103.14-9.57L103.14-9.57Q104.64-7.49 107.33-7.49L107.33-7.49L107.33-7.49Q110.02-7.49 111.46-9.60L111.46-9.60L111.46-9.60Q112.90-11.71 112.90-15.55L112.90-15.55L112.90-15.55Q112.90-19.39 111.42-21.47L111.42-21.47L111.42-21.47Q109.95-23.55 107.26-23.55L107.26-23.55L107.26-23.55Q104.58-23.55 103.10-21.47L103.10-21.47L103.10-21.47Q101.63-19.39 101.63-15.55ZM149.06-4.61L149.06-19.71L149.06-19.71Q149.06-21.70 147.94-22.62L147.94-22.62L147.94-22.62Q146.82-23.55 144.90-23.55L144.90-23.55L144.90-23.55Q143.62-23.55 142.37-23.23L142.37-23.23L142.37-23.23Q141.12-22.91 140.22-22.27L140.22-22.27L140.22-0.06L140.22-0.06Q139.58 0.13 138.21 0.32L138.21 0.32L138.21 0.32Q136.83 0.51 135.36 0.51L135.36 0.51L135.36 0.51Q133.95 0.51 132.83 0.32L132.83 0.32L132.83 0.32Q131.71 0.13 130.94-0.45L130.94-0.45L130.94-0.45Q130.18-1.02 129.76-2.02L129.76-2.02L129.76-2.02Q129.34-3.01 129.34-4.61L129.34-4.61L129.34-23.81L129.34-23.81Q129.34-25.54 130.08-26.62L130.08-26.62L130.08-26.62Q130.82-27.71 132.10-28.61L132.10-28.61L132.10-28.61Q134.27-30.14 137.57-31.10L137.57-31.10L137.57-31.10Q140.86-32.06 144.90-32.06L144.90-32.06L144.90-32.06Q152.13-32.06 156.03-28.90L156.03-28.90L156.03-28.90Q159.94-25.73 159.94-20.10L159.94-20.10L159.94-0.06L159.94-0.06Q159.30 0.13 157.92 0.32L157.92 0.32L157.92 0.32Q156.54 0.51 155.07 0.51L155.07 0.51L155.07 0.51Q153.66 0.51 152.54 0.32L152.54 0.32L152.54 0.32Q151.42 0.13 150.66-0.45L150.66-0.45L150.66-0.45Q149.89-1.02 149.47-2.02L149.47-2.02L149.47-2.02Q149.06-3.01 149.06-4.61L149.06-4.61ZM190.59 0.19L173.44 0.19L173.44 0.19Q170.69 0.19 169.09-1.41L169.09-1.41L169.09-1.41Q167.49-3.01 167.49-5.76L167.49-5.76L167.49-38.85L167.49-38.85Q168.19-38.98 169.73-39.20L169.73-39.20L169.73-39.20Q171.26-39.42 172.67-39.42L172.67-39.42L172.67-39.42Q174.14-39.42 175.26-39.20L175.26-39.20L175.26-39.20Q176.38-38.98 177.15-38.40L177.15-38.40L177.15-38.40Q177.92-37.82 178.30-36.80L178.30-36.80L178.30-36.80Q178.69-35.78 178.69-34.11L178.69-34.11L178.69-8.83L193.34-8.83L193.34-8.83Q193.79-8.13 194.18-6.94L194.18-6.94L194.18-6.94Q194.56-5.76 194.56-4.48L194.56-4.48L194.56-4.48Q194.56-1.92 193.47-0.86L193.47-0.86L193.47-0.86Q192.38 0.19 190.59 0.19L190.59 0.19ZM199.23-39.74L199.23-39.74L199.23-39.74Q199.23-42.18 200.86-43.84L200.86-43.84L200.86-43.84Q202.50-45.50 205.18-45.50L205.18-45.50L205.18-45.50Q207.87-45.50 209.50-43.84L209.50-43.84L209.50-43.84Q211.14-42.18 211.14-39.74L211.14-39.74L211.14-39.74Q211.14-37.31 209.50-35.65L209.50-35.65L209.50-35.65Q207.87-33.98 205.18-33.98L205.18-33.98L205.18-33.98Q202.50-33.98 200.86-35.65L200.86-35.65L200.86-35.65Q199.23-37.31 199.23-39.74ZM210.62-26.11L210.62-0.06L210.62-0.06Q209.92 0.06 208.54 0.29L208.54 0.29L208.54 0.29Q207.17 0.51 205.76 0.51L205.76 0.51L205.76 0.51Q204.35 0.51 203.23 0.32L203.23 0.32L203.23 0.32Q202.11 0.13 201.34-0.45L201.34-0.45L201.34-0.45Q200.58-1.02 200.16-2.02L200.16-2.02L200.16-2.02Q199.74-3.01 199.74-4.61L199.74-4.61L199.74-30.66L199.74-30.66Q200.45-30.78 201.82-31.01L201.82-31.01L201.82-31.01Q203.20-31.23 204.61-31.23L204.61-31.23L204.61-31.23Q206.02-31.23 207.14-31.04L207.14-31.04L207.14-31.04Q208.26-30.85 209.02-30.27L209.02-30.27L209.02-30.27Q209.79-29.70 210.21-28.70L210.21-28.70L210.21-28.70Q210.62-27.71 210.62-26.11L210.62-26.11ZM232.70-32.06L232.70-32.06L232.70-32.06Q236.35-32.06 239.33-31.14L239.33-31.14L239.33-31.14Q242.30-30.21 244.35-28.74L244.35-28.74L244.35-28.74Q245.63-27.84 246.37-26.75L246.37-26.75L246.37-26.75Q247.10-25.66 247.10-23.94L247.10-23.94L247.10-1.54L247.10-1.54Q247.10 1.86 245.82 4.32L245.82 4.32L245.82 4.32Q244.54 6.78 242.34 8.42L242.34 8.42L242.34 8.42Q240.13 10.05 237.15 10.82L237.15 10.82L237.15 10.82Q234.18 11.58 230.78 11.58L230.78 11.58L230.78 11.58Q224.96 11.58 221.63 10.02L221.63 10.02L221.63 10.02Q218.30 8.45 218.30 4.93L218.30 4.93L218.30 4.93Q218.30 3.46 218.91 2.34L218.91 2.34L218.91 2.34Q219.52 1.22 220.29 0.64L220.29 0.64L220.29 0.64Q222.14 1.66 224.48 2.37L224.48 2.37L224.48 2.37Q226.82 3.07 229.31 3.07L229.31 3.07L229.31 3.07Q232.77 3.07 234.82 1.92L234.82 1.92L234.82 1.92Q236.86 0.77 236.86-1.79L236.86-1.79L236.86-2.82L236.86-2.82Q234.24-1.66 230.46-1.66L230.46-1.66L230.46-1.66Q227.58-1.66 224.99-2.53L224.99-2.53L224.99-2.53Q222.40-3.39 220.45-5.22L220.45-5.22L220.45-5.22Q218.50-7.04 217.31-9.92L217.31-9.92L217.31-9.92Q216.13-12.80 216.13-16.77L216.13-16.77L216.13-16.77Q216.13-20.67 217.38-23.55L217.38-23.55L217.38-23.55Q218.62-26.43 220.83-28.32L220.83-28.32L220.83-28.32Q223.04-30.21 226.08-31.14L226.08-31.14L226.08-31.14Q229.12-32.06 232.70-32.06ZM236.67-11.01L236.67-22.78L236.67-22.78Q236.22-23.04 235.36-23.30L235.36-23.30L235.36-23.30Q234.50-23.55 233.22-23.55L233.22-23.55L233.22-23.55Q230.08-23.55 228.51-21.79L228.51-21.79L228.51-21.79Q226.94-20.03 226.94-16.77L226.94-16.77L226.94-16.77Q226.94-13.06 228.51-11.42L228.51-11.42L228.51-11.42Q230.08-9.79 232.51-9.79L232.51-9.79L232.51-9.79Q235.14-9.79 236.67-11.01L236.67-11.01ZM284.54-19.46L284.54-0.06L284.54-0.06Q283.90 0.13 282.53 0.32L282.53 0.32L282.53 0.32Q281.15 0.51 279.68 0.51L279.68 0.51L279.68 0.51Q278.27 0.51 277.15 0.32L277.15 0.32L277.15 0.32Q276.03 0.13 275.26-0.45L275.26-0.45L275.26-0.45Q274.50-1.02 274.08-2.02L274.08-2.02L274.08-2.02Q273.66-3.01 273.66-4.61L273.66-4.61L273.66-18.82L273.66-18.82Q273.66-21.44 272.35-22.50L272.35-22.50L272.35-22.50Q271.04-23.55 269.12-23.55L269.12-23.55L269.12-23.55Q267.84-23.55 266.69-23.23L266.69-23.23L266.69-23.23Q265.54-22.91 264.83-22.46L264.83-22.46L264.83-0.06L264.83-0.06Q264.19 0.13 262.82 0.32L262.82 0.32L262.82 0.32Q261.44 0.51 259.97 0.51L259.97 0.51L259.97 0.51Q258.56 0.51 257.44 0.32L257.44 0.32L257.44 0.32Q256.32 0.13 255.55-0.45L255.55-0.45L255.55-0.45Q254.78-1.02 254.37-2.02L254.37-2.02L254.37-2.02Q253.95-3.01 253.95-4.61L253.95-4.61L253.95-41.73L253.95-41.73Q254.66-41.86 256.03-42.08L256.03-42.08L256.03-42.08Q257.41-42.30 258.82-42.30L258.82-42.30L258.82-42.30Q260.22-42.30 261.34-42.11L261.34-42.11L261.34-42.11Q262.46-41.92 263.23-41.34L263.23-41.34L263.23-41.34Q264-40.77 264.42-39.78L264.42-39.78L264.42-39.78Q264.83-38.78 264.83-37.18L264.83-37.18L264.83-30.91L264.83-30.91Q265.66-31.23 267.36-31.65L267.36-31.65L267.36-31.65Q269.06-32.06 271.10-32.06L271.10-32.06L271.10-32.06Q277.44-32.06 280.99-28.90L280.99-28.90L280.99-28.90Q284.54-25.73 284.54-19.46L284.54-19.46ZM302.14-20.35L302.14-10.69L302.14-10.69Q302.14-9.02 303.20-8.32L303.20-8.32L303.20-8.32Q304.26-7.62 306.18-7.62L306.18-7.62L306.18-7.62Q307.14-7.62 308.16-7.78L308.16-7.78L308.16-7.78Q309.18-7.94 309.95-8.19L309.95-8.19L309.95-8.19Q310.53-7.49 310.94-6.62L310.94-6.62L310.94-6.62Q311.36-5.76 311.36-4.54L311.36-4.54L311.36-4.54Q311.36-2.11 309.54-0.58L309.54-0.58L309.54-0.58Q307.71 0.96 303.10 0.96L303.10 0.96L303.10 0.96Q297.47 0.96 294.43-1.60L294.43-1.60L294.43-1.60Q291.39-4.16 291.39-9.92L291.39-9.92L291.39-37.31L291.39-37.31Q292.10-37.50 293.41-37.73L293.41-37.73L293.41-37.73Q294.72-37.95 296.19-37.95L296.19-37.95L296.19-37.95Q299.01-37.95 300.58-36.96L300.58-36.96L300.58-36.96Q302.14-35.97 302.14-32.77L302.14-32.77L302.14-28.67L310.53-28.67L310.53-28.67Q310.91-27.97 311.26-26.91L311.26-26.91L311.26-26.91Q311.62-25.86 311.62-24.58L311.62-24.58L311.62-24.58Q311.62-22.34 310.62-21.34L310.62-21.34L310.62-21.34Q309.63-20.35 307.97-20.35L307.97-20.35L302.14-20.35Z" fill="url(#editing-outline-gradient)"></path></g></g><style>text {
  font-size: 64px;
  font-family: Arial Black;
  dominant-baseline: central;
  text-anchor: middle;
}</style></svg>