<svg width="470.287548828125px" height="122.02138671875px" xmlns="http://www.w3.org/2000/svg" viewBox="14.856225585937494 13.989306640625003 470.287548828125 122.02138671875" style="background: rgba(0, 0, 0, 0);" preserveAspectRatio="xMidYMid"><defs><linearGradient id="editing-rainbow-gradient" x1="0" x2="1" y1="0.5" y2="0.5" gradientUnits="objectBoundingBox"><stop offset="0.00" stop-color="#f00"></stop><stop offset="0.17" stop-color="#f90"></stop><stop offset="0.34" stop-color="#ff4"></stop><stop offset="0.51" stop-color="#9f0"></stop><stop offset="0.68" stop-color="#09f"></stop><stop offset="0.85" stop-color="#00f"></stop><stop offset="1.00" stop-color="#90f"></stop></linearGradient><filter id="editing-rainbow" x="-100%" y="-100%" width="300%" height="300%"><feMorphology operator="dilate" radius="1,2" in="SourceGraphic" result="dilate"></feMorphology><feColorMatrix in="dilate" result="color" type="matrix" values="0.7 0 0 0 0  0 0.7 0 0 0  0 0 0.7 0 0  0 0 0 1 0"></feColorMatrix><feOffset dy="2" result="offset"></feOffset><feGaussianBlur stdDeviation="3"></feGaussianBlur><feOffset dy="3"></feOffset><feColorMatrix result="blur" type="matrix" values="0.7 0 0 0 0  0 0.7 0 0 0  0 0 0.7 0 0  0 0 0 1 0"></feColorMatrix><feMerge><feMergeNode in="blur"></feMergeNode><feMergeNode in="offset"></feMergeNode><feMergeNode in="SourceGraphic"></feMergeNode></feMerge></filter></defs><g filter="url(#editing-rainbow)"><g transform="translate(86.64437687397003, 104.75218772888184)"><path d="M6.53 0L-0.83 0L10.75-42.24L24.13-42.24L27.07-18.11L38.98-42.24L50.18-42.24L51.33-10.62L51.33-10.62Q51.58-4.35 54.66-2.43L54.66-2.43L54.66-2.43Q53.95-1.15 51.90 0.06L51.90 0.06L51.90 0.06Q49.86 1.28 47.14 1.28L47.14 1.28L47.14 1.28Q44.42 1.28 42.82 0.51L42.82 0.51L42.82 0.51Q41.22-0.26 40.32-1.54L40.32-1.54L40.32-1.54Q38.72-3.84 38.72-8.26L38.72-8.26L38.72-28.03L26.11 0L18.18 0L13.70-28.74L6.53 0ZM71.36 1.28L71.36 1.28L71.36 1.28Q57.28 1.28 57.28-11.97L57.28-11.97L57.28-11.97Q57.28-21.38 62.46-27.46L62.46-27.46L62.46-27.46Q67.97-33.92 77.50-33.92L77.50-33.92L77.50-33.92Q84.42-33.92 87.94-30.72L87.94-30.72L87.94-30.72Q91.46-27.52 91.46-20.80L91.46-20.80L91.46-20.80Q91.46-10.56 85.95-4.61L85.95-4.61L85.95-4.61Q80.58 1.28 71.36 1.28ZM73.02-26.56L73.02-26.56L73.02-26.56Q72.26-24.83 71.65-22.24L71.65-22.24L71.65-22.24Q71.04-19.65 70.27-15.55L70.27-15.55L70.27-15.55Q69.50-11.46 69.50-6.40L69.50-6.40L69.50-6.40Q69.50-4.74 70.05-3.65L70.05-3.65L70.05-3.65Q70.59-2.56 72.06-2.56L72.06-2.56L72.06-2.56Q73.54-2.56 74.46-3.26L74.46-3.26L74.46-3.26Q75.39-3.97 76.10-5.63L76.10-5.63L76.10-5.63Q77.38-8.58 78.40-14.05L78.40-14.05L78.40-14.05Q79.42-19.52 79.52-21.89L79.52-21.89L79.52-21.89Q79.62-24.26 79.62-26.02L79.62-26.02L79.62-26.02Q79.62-27.78 79.10-28.93L79.10-28.93L79.10-28.93Q78.59-30.08 77.15-30.08L77.15-30.08L77.15-30.08Q75.71-30.08 74.75-29.18L74.75-29.18L74.75-29.18Q73.79-28.29 73.02-26.56ZM109.18 1.28L109.18 1.28L109.18 1.28Q95.10 1.28 95.10-11.97L95.10-11.97L95.10-11.97Q95.10-21.38 100.29-27.46L100.29-27.46L100.29-27.46Q105.79-33.92 115.33-33.92L115.33-33.92L115.33-33.92Q122.24-33.92 125.76-30.72L125.76-30.72L125.76-30.72Q129.28-27.52 129.28-20.80L129.28-20.80L129.28-20.80Q129.28-10.56 123.78-4.61L123.78-4.61L123.78-4.61Q118.40 1.28 109.18 1.28ZM110.85-26.56L110.85-26.56L110.85-26.56Q110.08-24.83 109.47-22.24L109.47-22.24L109.47-22.24Q108.86-19.65 108.10-15.55L108.10-15.55L108.10-15.55Q107.33-11.46 107.33-6.40L107.33-6.40L107.33-6.40Q107.33-4.74 107.87-3.65L107.87-3.65L107.87-3.65Q108.42-2.56 109.89-2.56L109.89-2.56L109.89-2.56Q111.36-2.56 112.29-3.26L112.29-3.26L112.29-3.26Q113.22-3.97 113.92-5.63L113.92-5.63L113.92-5.63Q115.20-8.58 116.22-14.05L116.22-14.05L116.22-14.05Q117.25-19.52 117.34-21.89L117.34-21.89L117.34-21.89Q117.44-24.26 117.44-26.02L117.44-26.02L117.44-26.02Q117.44-27.78 116.93-28.93L116.93-28.93L116.93-28.93Q116.42-30.08 114.98-30.08L114.98-30.08L114.98-30.08Q113.54-30.08 112.58-29.18L112.58-29.18L112.58-29.18Q111.62-28.29 110.85-26.56ZM160.13 1.28L160.13 1.28L160.13 1.28Q152.38 1.28 152.38-4.74L152.38-4.74L152.38-4.74Q152.45-6.40 152.96-9.22L152.96-9.22L154.11-15.10L154.11-15.10Q155.84-23.42 155.84-25.28L155.84-25.28L155.84-25.28Q155.84-28.99 153.66-28.99L153.66-28.99L153.66-28.99Q150.02-28.99 148.10-19.46L148.10-19.46L144.32 0L131.46 1.28L138.11-32.70L148.61-33.92L147.58-27.65L147.58-27.65Q150.59-33.92 159.81-33.92L159.81-33.92L159.81-33.92Q164.29-33.92 166.18-32.03L166.18-32.03L166.18-32.03Q168.06-30.14 168.06-25.92L168.06-25.92L168.06-25.92Q168.06-21.95 166.02-12.67L166.02-12.67L166.02-12.67Q165.06-8.51 165.06-6.94L165.06-6.94L165.06-6.94Q165.06-5.38 165.92-4.48L165.92-4.48L165.92-4.48Q166.78-3.58 168.06-3.46L168.06-3.46L168.06-3.46Q167.42-1.28 165.22 0L165.22 0L165.22 0Q163.01 1.28 160.13 1.28ZM199.94-9.86L199.94-9.86L199.94-9.86Q201.15-8.32 201.15-5.34L201.15-5.34L201.15-5.34Q201.15-2.37 198.88-0.54L198.88-0.54L198.88-0.54Q196.61 1.28 192.64 1.28L192.64 1.28L192.64 1.28Q190.34 1.28 186.75 0.77L186.75 0.77L186.75 0.77Q179.71-0.32 177.70-0.32L177.70-0.32L177.70-0.32Q175.68-0.32 174.85-0.22L174.85-0.22L174.85-0.22Q174.02-0.13 172.67 0L172.67 0L180.42-42.24L194.43-42.24L188.03-7.04L188.03-7.04Q188.86-6.91 189.63-6.91L189.63-6.91L191.23-6.91L191.23-6.91Q196.61-6.91 199.94-9.86ZM220.80-3.52L220.80-3.52L220.80-3.52Q218.82 1.28 212.48 1.28L212.48 1.28L212.48 1.28Q209.22 1.28 207.17-0.96L207.17-0.96L207.17-0.96Q205.44-2.94 205.44-4.93L205.44-4.93L205.44-4.93Q205.44-10.11 207.81-20.22L207.81-20.22L210.18-32.64L223.17-33.92L219.26-13.70L219.26-13.70Q218.18-8.96 218.18-7.30L218.18-7.30L218.18-7.30Q218.18-3.65 220.80-3.52ZM211.33-41.54L211.33-41.54L211.33-41.54Q211.33-44.03 213.41-45.38L213.41-45.38L213.41-45.38Q215.49-46.72 218.50-46.72L218.50-46.72L218.50-46.72Q221.50-46.72 223.33-45.38L223.33-45.38L223.33-45.38Q225.15-44.03 225.15-41.54L225.15-41.54L225.15-41.54Q225.15-39.04 223.14-37.76L223.14-37.76L223.14-37.76Q221.12-36.48 218.11-36.48L218.11-36.48L218.11-36.48Q215.10-36.48 213.22-37.76L213.22-37.76L213.22-37.76Q211.33-39.04 211.33-41.54ZM230.78-26.75L230.78-26.75L230.78-26.75Q232.96-29.82 236.26-31.87L236.26-31.87L236.26-31.87Q239.55-33.92 243.58-33.92L243.58-33.92L243.58-33.92Q247.62-33.92 249.54-32.64L249.54-32.64L262.08-33.92L257.73-9.34L257.73-9.34Q255.49 3.20 250.75 8.13L250.75 8.13L250.75 8.13Q246.21 12.80 237.38 12.80L237.38 12.80L237.38 12.80Q230.66 12.80 226.82 10.69L226.82 10.69L226.82 10.69Q222.98 8.58 222.98 5.06L222.98 5.06L222.98 5.06Q222.98 2.43 224.96 0.93L224.96 0.93L224.96 0.93Q226.94-0.58 230.02-0.58L230.02-0.58L230.02-0.58Q232.70-0.58 234.75 0.64L234.75 0.64L234.75 0.64Q235.97 1.28 236.54 2.18L236.54 2.18L236.54 2.18Q235.07 3.46 235.07 5.57L235.07 5.57L235.07 5.57Q235.07 8.32 237.63 8.32L237.63 8.32L237.63 8.32Q241.92 8.32 244.35-1.79L244.35-1.79L244.35-1.79Q245.06-4.54 245.63-7.30L245.63-7.30L245.63-7.30Q242.75-3.78 236.22-3.78L236.22-3.78L236.22-3.78Q231.68-3.78 229.06-5.95L229.06-5.95L229.06-5.95Q226.43-8.13 226.43-13.25L226.43-13.25L226.43-13.25Q226.43-16.45 227.52-20.06L227.52-20.06L227.52-20.06Q228.61-23.68 230.78-26.75ZM239.10-13.06L239.10-13.06L239.10-13.06Q239.10-8.70 241.34-8.70L241.34-8.70L241.34-8.70Q242.88-8.70 244.35-10.37L244.35-10.37L244.35-10.37Q245.50-11.71 245.95-13.70L245.95-13.70L249.22-30.14L249.22-30.14Q248.90-30.21 248.58-30.34L248.58-30.34L248.58-30.34Q247.94-30.59 247.10-30.59L247.10-30.59L247.10-30.59Q243.20-30.59 240.90-24.19L240.90-24.19L240.90-24.19Q239.10-19.20 239.10-13.06ZM296.77-7.10L296.77-7.10L296.77-7.10Q296.77-4.29 299.65-3.46L299.65-3.46L299.65-3.46Q298.94-1.09 296.19 0.19L296.19 0.19L296.19 0.19Q293.89 1.28 291.36 1.28L291.36 1.28L291.36 1.28Q288.83 1.28 287.52 0.61L287.52 0.61L287.52 0.61Q286.21-0.06 285.50-1.15L285.50-1.15L285.50-1.15Q284.35-2.82 284.35-5.95L284.35-5.95L284.35-5.95Q284.35-7.81 285.38-12.93L285.38-12.93L286.27-17.79L286.27-17.79Q287.36-23.36 287.36-25.41L287.36-25.41L287.36-25.41Q287.36-28.99 285.38-28.99L285.38-28.99L285.38-28.99Q282.88-28.99 281.28-25.34L281.28-25.34L281.28-25.34Q280.64-23.94 280.19-21.82L280.19-21.82L275.84 0L262.98 1.28L272-44.80L284.86-46.08L284.35-43.52L284.35-43.52Q282.56-33.66 281.02-30.34L281.02-30.34L281.02-30.34Q284.61-33.92 291.20-33.92L291.20-33.92L291.20-33.92Q298.18-33.92 299.46-29.31L299.46-29.31L299.46-29.31Q299.90-27.84 299.90-26.56L299.90-26.56L299.90-26.56Q299.90-25.28 299.81-24.29L299.81-24.29L299.81-24.29Q299.71-23.30 299.39-21.50L299.39-21.50L298.56-16.90L297.09-9.66L297.09-9.66Q296.77-8.19 296.77-7.10ZM305.86-6.40L305.86-6.40L305.86-6.40Q305.86-8.13 306.75-12.48L306.75-12.48L310.14-29.76L306.37-29.76L306.62-31.68L306.62-31.68Q314.30-33.98 321.73-39.62L321.73-39.62L324.80-39.62L323.26-32.64L328.26-32.64L327.68-29.76L322.75-29.76L319.49-12.48L319.49-12.48Q318.66-8.51 318.66-7.17L318.66-7.17L318.66-7.17Q318.66-4.10 321.34-3.46L321.34-3.46L321.34-3.46Q320.70-1.28 318.40 0L318.40 0L318.40 0Q316.10 1.28 312.83 1.28L312.83 1.28L312.83 1.28Q309.57 1.28 307.71-0.77L307.71-0.77L307.71-0.77Q305.86-2.82 305.86-6.40Z" fill="url(#editing-rainbow-gradient)"></path></g></g><style>text {
  font-size: 64px;
  font-family: Arial Black;
  dominant-baseline: central;
  text-anchor: middle;
}</style></svg>